<svg width="24" height="24" viewBox="0 0 24 24" fill="none" xmlns="http://www.w3.org/2000/svg">
<path d="M12 0C11.7386 1.70333e-05 11.4876 0.102375 11.3008 0.285156L0.392578 9.20703C0.379979 9.2165 0.367606 9.22627 0.355469 9.23633L0.318359 9.26758V9.26953C0.218063 9.36297 0.138047 9.47603 0.0832803 9.60169C0.028514 9.72735 0.000167074 9.86292 0 10C0 10.2652 0.105357 10.5196 0.292893 10.7071C0.48043 10.8946 0.734784 11 1 11H2V22C2 23.105 2.895 24 4 24H20C21.105 24 22 23.105 22 22V11H23C23.2652 11 23.5196 10.8946 23.7071 10.7071C23.8946 10.5196 24 10.2652 24 10C24.0001 9.8626 23.9719 9.72664 23.9171 9.60063C23.8623 9.47461 23.7822 9.36124 23.6816 9.26758L23.666 9.25586C23.6441 9.23598 23.6213 9.21708 23.5977 9.19922L22 7.89258V4C22 3.448 21.552 3 21 3H20C19.448 3 19 3.448 19 4V5.43945L12.6777 0.267578C12.4935 0.0963261 12.2515 0.000785335 12 0ZM15 13H19V21H15V13Z" fill="white"/>
</svg>
